<svg width="10" height="5" viewBox="0 0 10 5" fill="none" xmlns="http://www.w3.org/2000/svg">
<path d="M4.65207 4.6552C4.48392 4.6552 4.31577 4.59691 4.17564 4.46577L0.42025 0.793668C0.322161 0.691666 0.322161 0.531376 0.406237 0.429373C0.504326 0.32737 0.658465 0.32737 0.756553 0.414801L4.51194 4.0869C4.58201 4.15976 4.70812 4.15976 4.7922 4.0869L8.54759 0.414801C8.64567 0.312799 8.79981 0.32737 8.8979 0.429373C8.99599 0.531376 8.98198 0.691666 8.88389 0.793668L5.1285 4.45119C4.98837 4.58234 4.82022 4.6552 4.65207 4.6552Z" fill="#637381"/>
<path fill-rule="evenodd" clip-rule="evenodd" d="M3.93458 4.7123L0.1716 1.03278C-0.0527085 0.799518 -0.0506931 0.441625 0.14017 0.210066L0.148561 0.199887L0.157705 0.190377C0.388493 -0.0496206 0.754118 -0.0492601 0.985979 0.157409L0.991922 0.162706L4.65207 3.74167L8.30344 0.171283C8.56287 -0.0932889 8.9411 -0.0231515 9.14643 0.190377C9.39581 0.449704 9.33463 0.822388 9.13242 1.03266L9.12459 1.04081L5.36416 4.70299C5.17121 4.88357 4.92178 5 4.65207 5C4.40104 5 4.14734 4.91153 3.94003 4.71751L3.93458 4.7123ZM8.54759 0.414801L4.7922 4.0869C4.70812 4.15976 4.58201 4.15976 4.51194 4.0869L0.756553 0.414801C0.658465 0.32737 0.504326 0.32737 0.406237 0.429373C0.322161 0.531376 0.322161 0.691666 0.42025 0.793668L4.17564 4.46577C4.31577 4.59691 4.48392 4.6552 4.65207 4.6552C4.82022 4.6552 4.98837 4.58234 5.1285 4.45119L8.88389 0.793668C8.98198 0.691666 8.99599 0.531376 8.8979 0.429373C8.79981 0.32737 8.64567 0.312799 8.54759 0.414801Z" fill="#637381"/>
</svg>
