<svg width="31" height="28" viewBox="0 0 31 28" fill="none" xmlns="http://www.w3.org/2000/svg">
<path d="M3.04361 11.8C3.19361 11.8 3.34361 11.8 3.44361 11.75L8.99361 9.8C9.44361 9.65 9.69361 9.15 9.54361 8.7C9.39361 8.25 8.89361 8 8.44361 8.15L5.09361 9.35C6.74361 4.8 11.0936 1.7 16.1436 1.7C21.4936 1.7 26.1936 5.25 27.4936 10.4C27.5936 10.85 28.0936 11.15 28.5436 11.05C28.9936 10.95 29.2936 10.45 29.1936 10C27.6936 4.1 22.2936 0 16.1436 0C10.1436 0 4.94361 3.85 3.24361 9.45L1.69361 5.1C1.54361 4.65 1.04361 4.4 0.593608 4.55C0.143608 4.7 -0.106392 5.2 0.0436083 5.65L1.94361 11.1C2.09361 11.5 2.59361 11.8 3.04361 11.8Z" fill="#3056D3"/>
<path d="M30.6436 22.5001L28.5936 17.1001C28.4936 16.8001 28.2436 16.5501 27.9436 16.4501C27.6436 16.3501 27.3436 16.3001 27.0436 16.4501L21.5436 18.5501C21.0936 18.7001 20.8436 19.2501 21.0436 19.7001C21.1936 20.1501 21.7436 20.4001 22.1936 20.2001L25.5936 18.9001C23.6936 22.8501 19.6436 25.4501 15.0436 25.4501C9.99361 25.4501 5.54361 22.3001 3.99361 17.6001C3.79361 17.1501 3.29361 16.9001 2.84361 17.0501C2.39361 17.2001 2.14361 17.7001 2.29361 18.1501C4.09361 23.5501 9.19361 27.2001 14.9936 27.2001C20.4936 27.2001 25.3936 23.9501 27.3936 19.0001L28.9936 23.1501C29.1436 23.5001 29.4436 23.7001 29.7936 23.7001C29.8936 23.7001 29.9936 23.7001 30.0936 23.6501C30.5936 23.4501 30.8436 22.9501 30.6436 22.5001Z" fill="#3056D3"/>
</svg>
