<svg width="31" height="24" viewBox="0 0 31 24" fill="none" xmlns="http://www.w3.org/2000/svg">
<path d="M26.55 6.41818H26.05V3.61818C26.05 2.41818 25.5 1.36818 24.55 0.668182C23.6 -0.0318183 22.4 -0.181818 21.3 0.218182L3.4 6.41818C1.5 6.51818 0 8.06818 0 10.0182V19.7182C0 21.7182 1.6 23.3182 3.6 23.3182H26.55C28.55 23.3182 30.15 21.7182 30.15 19.7182V10.0182C30.15 8.01818 28.5 6.41818 26.55 6.41818ZM21.85 1.86818C22.4 1.66818 23.05 1.76818 23.55 2.11818C24.05 2.46818 24.35 3.01818 24.35 3.61818V6.41818H8.75L21.85 1.86818ZM26.55 21.5682H3.6C2.6 21.5682 1.75 20.7182 1.75 19.7182V10.0182C1.75 9.01818 2.6 8.16818 3.6 8.16818H26.55C27.55 8.16818 28.4 9.01818 28.4 10.0182V11.3682H22.55C20.6 11.3682 19 12.9682 19 14.9182C19 16.8682 20.6 18.4682 22.55 18.4682H28.4V19.6682C28.4 20.7182 27.55 21.5682 26.55 21.5682ZM28.4 13.1182V16.7682H22.55C21.55 16.7682 20.75 15.9682 20.75 14.9682C20.75 13.9682 21.55 13.1682 22.55 13.1682H28.4V13.1182Z" fill="#3056D3"/>
</svg>
