<svg width="20" height="20" viewBox="0 0 20 20" fill="none" xmlns="http://www.w3.org/2000/svg">
<path d="M18.1818 20H13.7987C12.8247 20 12.013 19.188 12.013 18.2136V14.6407C12.013 14.2834 11.7208 13.9911 11.3636 13.9911H8.66883C8.31169 13.9911 8.01948 14.2834 8.01948 14.6407V18.1811C8.01948 19.1555 7.20779 19.9675 6.23377 19.9675H1.78571C0.811688 19.9675 0 19.1555 0 18.1811V6.84531C0 6.3581 0.25974 5.90337 0.681818 5.64352L9.25325 0.219245C9.70779 -0.0730816 10.3247 -0.0730816 10.7792 0.219245L19.3506 5.64352C19.7727 5.90337 20 6.3581 20 6.84531V18.1486C20 19.188 19.1883 20 18.1818 20ZM8.63636 12.8542H11.3312C12.3052 12.8542 13.1169 13.6663 13.1169 14.6407V18.1811C13.1169 18.5384 13.4091 18.8307 13.7662 18.8307H18.1818C18.539 18.8307 18.8312 18.5384 18.8312 18.1811V6.87779C18.8312 6.78035 18.7662 6.68291 18.7013 6.61795L10.1623 1.19367C10.0649 1.1287 9.93506 1.1287 9.87013 1.19367L1.2987 6.61795C1.2013 6.68291 1.16883 6.78035 1.16883 6.87779V18.2136C1.16883 18.5708 1.46104 18.8632 1.81818 18.8632H6.23377C6.59091 18.8632 6.88312 18.5708 6.88312 18.2136V14.6407C6.85065 13.6663 7.66234 12.8542 8.63636 12.8542Z" fill="#3056D3"/>
</svg>
