<svg width="21" height="23" viewBox="0 0 21 23" fill="none" xmlns="http://www.w3.org/2000/svg">
<path d="M19.2395 12.7625C19.1676 11.9356 18.4845 11.3604 17.6576 11.3604H2.34228C1.51539 11.3604 0.868266 11.9715 0.760411 12.7625L0.00542923 20.3123C-0.0305223 20.7437 0.113284 21.2111 0.400896 21.5346C0.688508 21.8582 1.11993 22.038 1.5873 22.038H18.4486C18.88 22.038 19.3114 21.8582 19.635 21.5346C19.9226 21.2111 20.0664 20.7796 20.0304 20.3123L19.2395 12.7625ZM18.6643 20.7077C18.6283 20.7437 18.5564 20.8156 18.4126 20.8156H1.5873C1.47944 20.8156 1.37159 20.7437 1.33564 20.7077C1.29968 20.6718 1.22778 20.5999 1.26373 20.4561L2.01871 12.8703C2.01871 12.6906 2.16252 12.5827 2.34228 12.5827H17.6936C17.8733 12.5827 17.9812 12.6906 18.0171 12.8703L18.7721 20.4561C18.7362 20.5639 18.7002 20.6718 18.6643 20.7077Z" fill="#3056D3"/>
<path d="M10 14.165C8.5979 14.165 7.4834 15.2795 7.4834 16.6816C7.4834 18.0838 8.5979 19.1983 10 19.1983C11.4021 19.1983 12.5166 18.0838 12.5166 16.6816C12.5166 15.2795 11.4021 14.165 10 14.165ZM10 17.94C9.31693 17.94 8.7417 17.3647 8.7417 16.6816C8.7417 15.9986 9.31693 15.4233 10 15.4233C10.6831 15.4233 11.2583 15.9986 11.2583 16.6816C11.2583 17.3647 10.6831 17.94 10 17.94Z" fill="#3056D3"/>
<path d="M0.868227 6.54318C0.94013 8.12504 2.34224 8.77217 3.06127 8.77217H5.57788C5.61383 8.77217 5.61383 8.77217 5.61383 8.77217C6.69237 8.70027 7.77092 7.98124 7.77092 6.54318V5.68034C8.95732 5.68034 11.6896 5.68034 12.876 5.68034V6.54318C12.876 7.98124 13.9546 8.70027 15.0331 8.77217H15.0691H17.5497C18.2688 8.77217 19.6709 8.12504 19.7428 6.54318C19.7428 6.43532 19.7428 6.03985 19.7428 5.68034C19.7428 5.39273 19.7428 5.14107 19.7428 5.10511C19.7428 5.06916 19.7428 5.03321 19.7428 5.03321C19.6349 4.02657 19.2754 3.19968 18.6642 2.55256L18.6283 2.51661C17.7295 1.68972 16.6509 1.22235 15.8241 0.934739C13.4153 0 10.3954 0 10.2516 0C8.13043 0.0359515 6.76428 0.215709 4.71504 0.934739C3.92411 1.1864 2.84556 1.65377 1.94677 2.48065L1.91082 2.51661C1.29965 3.16373 0.94013 3.99062 0.832275 4.99726C0.832275 5.03321 0.832275 5.06916 0.832275 5.06916C0.832275 5.14107 0.832275 5.35678 0.832275 5.64439C0.868227 5.96795 0.868227 6.39937 0.868227 6.54318ZM2.80961 3.37944C3.52864 2.73232 4.42743 2.33685 5.18241 2.04924C7.05189 1.36616 8.27424 1.22235 10.3235 1.1864C10.4673 1.1864 13.2715 1.22235 15.4286 2.04924C16.1836 2.33685 17.0824 2.69636 17.8014 3.37944C18.1969 3.81086 18.4485 4.38608 18.5204 5.06916C18.5204 5.17702 18.5204 5.35678 18.5204 5.64439C18.5204 6.0039 18.5204 6.39937 18.5204 6.50722C18.4845 7.33411 17.6935 7.51387 17.5857 7.51387H15.105C14.7455 7.47791 14.1703 7.33411 14.1703 6.54318V5.06916C14.1703 4.78155 13.9905 4.56584 13.7389 4.45799C13.5232 4.38609 7.23165 4.38609 7.01594 4.45799C6.76428 4.52989 6.58452 4.78155 6.58452 5.06916V6.54318C6.58452 7.33411 6.00929 7.47791 5.64978 7.51387H3.16912C3.06127 7.51387 2.27034 7.33411 2.23438 6.50722C2.23438 6.39937 2.23438 6.0039 2.23438 5.64439C2.23438 5.35678 2.23438 5.21297 2.23438 5.10511C2.16248 4.38609 2.41414 3.81086 2.80961 3.37944Z" fill="#3056D3"/>
</svg>
