<svg width="21" height="16" viewBox="0 0 21 16" fill="none" xmlns="http://www.w3.org/2000/svg">
<path d="M19.0227 0H1.97727C0.886364 0 0 0.983452 0 2.19385V13.8061C0 15.0165 0.886364 16 1.97727 16H19.0227C20.1136 16 21 15.0165 21 13.8061V2.19385C21 0.983452 20.1136 0 19.0227 0ZM19.0227 1.32388C19.1932 1.32388 19.3295 1.3617 19.4659 1.47518L10.9773 7.18676C10.6705 7.37589 10.3295 7.37589 10.0227 7.18676L1.53409 1.47518C1.67045 1.39953 1.80682 1.32388 1.97727 1.32388H19.0227ZM19.0227 14.6383H1.97727C1.56818 14.6383 1.19318 14.26 1.19318 13.7683V2.79905L9.375 8.32151C9.71591 8.54846 10.0909 8.66194 10.4659 8.66194C10.8409 8.66194 11.2159 8.54846 11.5568 8.32151L19.7386 2.79905V13.7683C19.8068 14.26 19.4318 14.6383 19.0227 14.6383Z" fill="#3056D3"/>
</svg>
