<svg width="31" height="21" viewBox="0 0 31 21" fill="none" xmlns="http://www.w3.org/2000/svg">
<path d="M28.45 0H12.8C11.55 0 10.5 1.05 10.5 2.3V2.65H3.65C3.2 2.65 2.8 2.9 2.6 3.3L0.1 8.35C2.23517e-08 8.5 0 8.7 0 8.9V16.7C0 17.2 0.4 17.6 0.9 17.6H2.35C2.6 19.4 4.15 20.75 6 20.75C7.85 20.75 9.4 19.35 9.65 17.6H11.4H20.35C20.6 19.4 22.15 20.75 24 20.75C25.85 20.75 27.4 19.35 27.65 17.6H29.5C30.2 17.6 30.75 17.05 30.75 16.35V2.25C30.75 1 29.7 0 28.45 0ZM4 4.35H10.55V7.85H2.25L4 4.35ZM5.95 18.95C4.85 18.95 4 18.05 4 17C4 15.95 4.9 15.05 5.95 15.05C7 15.05 7.9 15.95 7.9 17C7.9 18.05 7.05 18.95 5.95 18.95ZM5.95 13.3C4.35 13.3 2.95 14.35 2.45 15.8H1.75V9.65H10.55V15.8H9.5C8.95 14.35 7.6 13.3 5.95 13.3ZM24 18.95C22.9 18.95 22.05 18.05 22.05 17C22.05 15.95 22.95 15.05 24 15.05C25.05 15.05 25.95 15.95 25.95 17C25.95 18.05 25.05 18.95 24 18.95ZM29 15.8H27.5C27 14.35 25.6 13.3 24 13.3C22.4 13.3 21 14.35 20.5 15.8H12.25V2.25C12.25 1.95 12.5 1.7 12.8 1.7H28.45C28.75 1.7 29 1.95 29 2.25V15.8Z" fill="#3056D3"/>
</svg>
