<svg width="20" height="22" viewBox="0 0 20 22" fill="none" xmlns="http://www.w3.org/2000/svg">
<path d="M18.3958 12.2032C18.3271 11.4125 17.6739 10.8625 16.8833 10.8625H2.23957C1.44894 10.8625 0.830191 11.4469 0.727066 12.2032L0.00519115 19.4219C-0.0291839 19.8344 0.108316 20.2813 0.383316 20.5907C0.658316 20.9 1.07082 21.0719 1.51769 21.0719H17.6396C18.0521 21.0719 18.4646 20.9 18.7739 20.5907C19.0489 20.2813 19.1864 19.8688 19.1521 19.4219L18.3958 12.2032ZM17.8458 19.8C17.8114 19.8344 17.7427 19.9032 17.6052 19.9032H1.51769C1.41457 19.9032 1.31144 19.8344 1.27707 19.8C1.24269 19.7657 1.17394 19.6969 1.20832 19.5594L1.93019 12.3063C1.93019 12.1344 2.06769 12.0313 2.23957 12.0313H16.9177C17.0896 12.0313 17.1927 12.1344 17.2271 12.3063L17.9489 19.5594C17.9146 19.6625 17.8802 19.7657 17.8458 19.8Z" fill="#212B36"/>
<path d="M9.56152 13.5437C8.2209 13.5437 7.15527 14.6093 7.15527 15.95C7.15527 17.2906 8.2209 18.3562 9.56152 18.3562C10.9021 18.3562 11.9678 17.2906 11.9678 15.95C11.9678 14.6093 10.9021 13.5437 9.56152 13.5437ZM9.56152 17.1531C8.9084 17.1531 8.3584 16.6031 8.3584 15.95C8.3584 15.2968 8.9084 14.7468 9.56152 14.7468C10.2146 14.7468 10.7646 15.2968 10.7646 15.95C10.7646 16.6031 10.2146 17.1531 9.56152 17.1531Z" fill="#212B36"/>
<path d="M0.830273 6.25625C0.899023 7.76875 2.23965 8.3875 2.92715 8.3875H5.3334C5.36777 8.3875 5.36777 8.3875 5.36777 8.3875C6.39902 8.31875 7.43027 7.63125 7.43027 6.25625V5.43125C8.56465 5.43125 11.1771 5.43125 12.3115 5.43125V6.25625C12.3115 7.63125 13.3428 8.31875 14.374 8.3875H14.4084H16.7803C17.4678 8.3875 18.8084 7.76875 18.8771 6.25625C18.8771 6.15312 18.8771 5.775 18.8771 5.43125C18.8771 5.15625 18.8771 4.91562 18.8771 4.88125C18.8771 4.84687 18.8771 4.8125 18.8771 4.8125C18.774 3.85 18.4303 3.05937 17.8459 2.44062L17.8115 2.40625C16.9521 1.61562 15.9209 1.16875 15.1303 0.89375C12.8271 0 9.93965 0 9.80215 0C7.77402 0.034375 6.46777 0.20625 4.5084 0.89375C3.75215 1.13437 2.7209 1.58125 1.86152 2.37187L1.82715 2.40625C1.24277 3.025 0.899023 3.81562 0.795898 4.77812C0.795898 4.8125 0.795898 4.84687 0.795898 4.84687C0.795898 4.91562 0.795898 5.12187 0.795898 5.39687C0.830273 5.70625 0.830273 6.11875 0.830273 6.25625ZM2.68652 3.23125C3.37402 2.6125 4.2334 2.23437 4.95527 1.95937C6.74277 1.30625 7.91152 1.16875 9.8709 1.13437C10.0084 1.13437 12.6896 1.16875 14.7521 1.95937C15.474 2.23437 16.3334 2.57812 17.0209 3.23125C17.399 3.64375 17.6396 4.19375 17.7084 4.84687C17.7084 4.95 17.7084 5.12187 17.7084 5.39687C17.7084 5.74062 17.7084 6.11875 17.7084 6.22187C17.674 7.0125 16.9178 7.18437 16.8146 7.18437H14.4428C14.099 7.15 13.549 7.0125 13.549 6.25625V4.84687C13.549 4.57187 13.3771 4.36562 13.1365 4.2625C12.9303 4.19375 6.91465 4.19375 6.7084 4.2625C6.46777 4.33125 6.2959 4.57187 6.2959 4.84687V6.25625C6.2959 7.0125 5.7459 7.15 5.40215 7.18437H3.03027C2.92715 7.18437 2.1709 7.0125 2.13652 6.22187C2.13652 6.11875 2.13652 5.74062 2.13652 5.39687C2.13652 5.12187 2.13652 4.98437 2.13652 4.88125C2.06777 4.19375 2.3084 3.64375 2.68652 3.23125Z" fill="#212B36"/>
</svg>
