<svg width="20" height="18" viewBox="0 0 20 18" fill="none" xmlns="http://www.w3.org/2000/svg">
<path d="M9.56154 17.1769C9.1989 17.1769 8.80604 17.0532 8.53406 16.7747C7.83901 16.156 7.14395 15.5681 6.53956 15.0422C4.75659 13.4953 3.21538 12.165 2.12747 10.8346C0.858241 9.28774 0.253846 7.80271 0.253846 6.163C0.253846 4.55423 0.797802 3.0692 1.79505 1.98637C2.79231 0.872606 4.18242 0.253846 5.69341 0.253846C6.81154 0.253846 7.86923 0.625102 8.77582 1.33668C9.0478 1.55324 9.31978 1.80075 9.56154 2.07919C9.8033 1.80075 10.0753 1.55324 10.3472 1.33668C11.2538 0.625102 12.2813 0.253846 13.4297 0.253846C14.9407 0.253846 16.3005 0.872606 17.328 1.98637C18.3253 3.0692 18.8692 4.55423 18.8692 6.163C18.8692 7.80271 18.2648 9.28774 16.9956 10.8346C15.9077 12.165 14.3665 13.4953 12.5835 15.0422C11.9791 15.5681 11.2841 16.156 10.589 16.7747C10.317 17.0222 9.92417 17.1769 9.56154 17.1769ZM5.69341 1.30574C4.48461 1.30574 3.36648 1.80075 2.58077 2.69795C1.76483 3.59515 1.34176 4.80173 1.34176 6.13206C1.34176 7.49333 1.85549 8.76179 2.94341 10.1231C3.97088 11.3915 5.48187 12.6909 7.23461 14.2069C7.83901 14.7328 8.53406 15.3206 9.22912 15.9703C9.41044 16.125 9.71264 16.125 9.89395 15.9703C10.6192 15.3516 11.2841 14.7328 11.8885 14.2069C13.6412 12.6909 15.1522 11.3915 16.1797 10.1231C17.2676 8.76179 17.7813 7.49333 17.7813 6.13206C17.7813 4.80173 17.328 3.59515 16.5423 2.69795C15.7264 1.80075 14.6385 1.30574 13.4297 1.30574C12.5231 1.30574 11.7071 1.58418 11.0121 2.172C10.7099 2.38857 10.4681 2.66701 10.1962 2.97639C10.0451 3.16202 9.8033 3.28577 9.56154 3.28577C9.31978 3.28577 9.07802 3.16202 8.92692 2.97639C8.68516 2.66701 8.41319 2.38857 8.11099 2.172C7.41593 1.61512 6.6 1.30574 5.69341 1.30574Z" fill="#212B36"/>
<path fill-rule="evenodd" clip-rule="evenodd" d="M8.93395 1.13809C9.146 1.30695 9.35993 1.49548 9.56154 1.70386C9.76314 1.49548 9.97707 1.30695 10.1891 1.13809L10.1905 1.13699C11.1397 0.39196 12.2219 0 13.4297 0C15.0143 0 16.441 0.650487 17.5146 1.81425C18.5596 2.94897 19.1231 4.49768 19.1231 6.163C19.1231 7.8746 18.489 9.41461 17.1921 10.9953C16.1088 12.32 14.5873 13.6399 12.8531 15.1444L12.7502 15.2337C12.5406 15.4161 12.3213 15.6048 12.0956 15.7992C11.6663 16.1688 11.2134 16.5587 10.7588 16.9634C10.4414 17.2518 9.98852 17.4308 9.56154 17.4308C9.15022 17.4308 8.68898 17.2922 8.35899 16.9587C7.90613 16.5557 7.45514 16.1674 7.0275 15.7992C6.80177 15.6049 6.58254 15.4161 6.37297 15.2337C6.33854 15.2039 6.3042 15.1741 6.26993 15.1443C4.53581 13.64 3.01435 12.3201 1.93108 10.9955C0.634105 9.4147 0 7.87465 0 6.163C0 4.49832 0.562859 2.95032 1.60712 1.81572C2.65292 0.648478 4.11154 0 5.69341 0C6.87016 0 7.98268 0.391449 8.93255 1.13699L8.93395 1.13809ZM1.79505 1.98637C0.797802 3.0692 0.253846 4.55423 0.253846 6.163C0.253846 7.80271 0.858241 9.28774 2.12747 10.8346C3.1968 12.1422 4.70408 13.4499 6.44842 14.9631L6.53956 15.0422C6.74713 15.2228 6.9654 15.4108 7.19069 15.6047C7.62137 15.9756 8.07772 16.3685 8.53406 16.7747C8.80604 17.0532 9.1989 17.1769 9.56154 17.1769C9.92417 17.1769 10.317 17.0222 10.589 16.7747C11.0454 16.3685 11.5017 15.9755 11.9324 15.6047C12.1577 15.4108 12.3759 15.2228 12.5835 15.0422L12.6747 14.9631C14.419 13.4499 15.9263 12.1423 16.9956 10.8346C18.2648 9.28774 18.8692 7.80271 18.8692 6.163C18.8692 4.55423 18.3253 3.0692 17.328 1.98637C16.3005 0.872606 14.9407 0.253846 13.4297 0.253846C12.2813 0.253846 11.2538 0.625102 10.3472 1.33668C10.1383 1.50309 9.92926 1.68778 9.73397 1.89073C9.67513 1.95189 9.61752 2.01471 9.56154 2.07919C9.50555 2.01471 9.44795 1.95189 9.3891 1.89073C9.19381 1.68778 8.98482 1.50309 8.77582 1.33668C7.86923 0.625102 6.81154 0.253846 5.69341 0.253846C4.18242 0.253846 2.79231 0.872606 1.79505 1.98637ZM2.76857 2.86874C2.00106 3.71269 1.5956 4.8555 1.5956 6.13206C1.5956 7.42033 2.0788 8.63439 3.14116 9.9639C4.13476 11.1904 5.59322 12.4517 7.31497 13.9408L7.40067 14.0149C7.5267 14.1245 7.6577 14.2378 7.79157 14.3535C8.29454 14.7883 8.8463 15.2653 9.39735 15.7801C9.48457 15.8509 9.64394 15.85 9.7292 15.7772C10.1534 15.4153 10.5489 15.0605 10.9273 14.7211C11.1996 14.4769 11.463 14.2406 11.7218 14.0154L11.8081 13.9408C13.5299 12.4517 14.9883 11.1903 15.9819 9.96386C17.0443 8.63436 17.5275 7.42032 17.5275 6.13206C17.5275 4.86051 17.0948 3.71506 16.3529 2.86699C15.5838 2.02219 14.564 1.55958 13.4297 1.55958C12.5792 1.55958 11.8223 1.81923 11.176 2.36582L11.1682 2.3724L11.16 2.37833C10.8894 2.57219 10.6693 2.82257 10.3976 3.13172L10.3898 3.14063C10.1939 3.37879 9.88348 3.53961 9.56154 3.53961C9.2378 3.53961 8.92569 3.37699 8.73005 3.13664L8.72686 3.13272C8.49589 2.83714 8.24085 2.57736 7.96312 2.37833L7.95758 2.37437L7.95227 2.3701C7.29912 1.8468 6.53842 1.55958 5.69341 1.55958C4.55546 1.55958 3.50774 2.02474 2.77174 2.86519L2.76857 2.86874ZM10.1962 2.97639L10.2171 2.95258C10.4806 2.65273 10.7177 2.383 11.0121 2.172C11.7071 1.58418 12.5231 1.30574 13.4297 1.30574C14.6385 1.30574 15.7264 1.80075 16.5423 2.69795C17.328 3.59515 17.7813 4.80173 17.7813 6.13206C17.7813 7.49333 17.2676 8.76179 16.1797 10.1231C15.1717 11.3675 13.6984 12.6416 11.9879 14.1208L11.8885 14.2069C11.637 14.4257 11.3751 14.6605 11.1028 14.9048C10.7204 15.2477 10.3175 15.609 9.89395 15.9703C9.71264 16.125 9.41044 16.125 9.22912 15.9703C8.68036 15.4574 8.13159 14.983 7.62745 14.5472C7.49305 14.431 7.36182 14.3176 7.23461 14.2069L7.13515 14.1209C5.42473 12.6416 3.95139 11.3675 2.94341 10.1231C1.85549 8.76179 1.34176 7.49333 1.34176 6.13206C1.34176 4.80173 1.76483 3.59515 2.58077 2.69795C3.36648 1.80075 4.48461 1.30574 5.69341 1.30574C6.6 1.30574 7.41593 1.61512 8.11099 2.172C8.41319 2.38857 8.68516 2.66701 8.92692 2.97639C9.07802 3.16202 9.31978 3.28577 9.56154 3.28577C9.8033 3.28577 10.0451 3.16202 10.1962 2.97639Z" fill="#212B36"/>
</svg>
