<svg width="22" height="18" viewBox="0 0 22 18" fill="none" xmlns="http://www.w3.org/2000/svg">
<path d="M10.5765 10.2781C13.3952 10.2781 15.6983 7.975 15.6983 5.15625C15.6983 2.3375 13.3952 0 10.5765 0C7.75771 0 5.45459 2.30312 5.45459 5.12187C5.45459 7.94062 7.75771 10.2781 10.5765 10.2781ZM10.5765 1.20312C12.7421 1.20312 14.4952 2.95625 14.4952 5.12187C14.4952 7.2875 12.7421 9.04062 10.5765 9.04062C8.41084 9.04062 6.65771 7.2875 6.65771 5.12187C6.65771 2.99062 8.41084 1.20312 10.5765 1.20312Z" fill="#212B36"/>
<path d="M20.9234 16.4656C18.0703 14.025 14.3922 12.6843 10.5765 12.6843C6.76091 12.6843 3.08279 14.025 0.229664 16.4656C-0.0453363 16.6718 -0.0797113 17.05 0.160914 17.3249C0.367164 17.5656 0.745288 17.5999 1.02029 17.3937C3.66716 15.1593 7.07029 13.9218 10.6109 13.9218C14.1515 13.9218 17.5547 15.1593 20.2015 17.3937C20.3047 17.4968 20.4422 17.5312 20.5797 17.5312C20.7515 17.5312 20.9234 17.4625 21.0265 17.3249C21.2328 17.05 21.1984 16.6718 20.9234 16.4656Z" fill="#212B36"/>
</svg>
