<svg width="20" height="22" viewBox="0 0 20 22" fill="none" xmlns="http://www.w3.org/2000/svg">
<path d="M18.3906 6.33855H17.3594L15.0219 0.391669C14.8844 0.0822944 14.5406 -0.0552056 14.2313 0.0479194C13.9219 0.185419 13.7844 0.529169 13.8875 0.838544L16.0531 6.37292H3.3L5.46563 0.838544C5.60313 0.529169 5.43125 0.185419 5.12188 0.0479194C4.8125 -0.0895806 4.46875 0.0822944 4.33125 0.391669L1.99375 6.33855H0.9625C0.446875 6.33855 0 6.75105 0 7.30105V10.2229C0 10.7385 0.4125 11.1854 0.9625 11.1854H0.996875L1.89062 19.0229C2.02813 20.226 3.05937 21.1542 4.29687 21.1542H15.0219C16.2594 21.1542 17.2906 20.226 17.4281 19.0229L18.3219 11.1854H18.3563C18.8719 11.1854 19.3188 10.7729 19.3188 10.2229V7.30105C19.3531 6.78542 18.9406 6.33855 18.3906 6.33855ZM1.2375 7.54167H18.15V9.94792H1.2375V7.54167ZM16.2594 18.851C16.1906 19.4698 15.675 19.9167 15.0562 19.9167H4.33125C3.7125 19.9167 3.19687 19.4698 3.12812 18.851L2.23438 11.151H17.1531L16.2594 18.851Z" fill="#212B36"/>
<path d="M6.08457 17.0292C6.42832 17.0292 6.70332 16.7542 6.70332 16.4104V13.7635C6.70332 13.4198 6.42832 13.1448 6.08457 13.1448C5.74082 13.1448 5.46582 13.4198 5.46582 13.7635V16.4104C5.46582 16.7542 5.74082 17.0292 6.08457 17.0292Z" fill="#212B36"/>
<path d="M13.3033 17.0292C13.6471 17.0292 13.9221 16.7542 13.9221 16.4104V13.7635C13.9221 13.4198 13.6471 13.1448 13.3033 13.1448C12.9596 13.1448 12.6846 13.4198 12.6846 13.7635V16.4104C12.7189 16.7542 12.9939 17.0292 13.3033 17.0292Z" fill="#212B36"/>
</svg>
