<svg width="26" height="30" viewBox="0 0 26 30" fill="none" xmlns="http://www.w3.org/2000/svg">
<path d="M21.622 15.854C21.6072 13.3949 22.7505 11.5416 25.0592 10.1751C23.7679 8.37227 21.8144 7.38072 19.2393 7.18962C16.8011 7.00213 14.1335 8.57419 13.1567 8.57419C12.1245 8.57419 9.76395 7.25453 7.90662 7.25453C4.07355 7.31222 0 10.2328 0 16.1749C0 17.9308 0.329288 19.7444 0.987864 21.6121C1.86843 24.0712 5.04292 30.0962 8.3543 29.9988C10.0858 29.9592 11.3105 28.8018 13.5637 28.8018C15.7503 28.8018 16.8825 29.9988 18.8138 29.9988C22.1548 29.952 25.0259 24.475 25.8621 22.0088C21.3815 19.9499 21.622 15.9801 21.622 15.854ZM17.7335 4.85678C19.6093 2.68619 19.4391 0.710309 19.3836 0C17.7261 0.0937464 15.8095 1.09972 14.7181 2.33645C13.5156 3.66332 12.8089 5.30388 12.9606 7.15357C14.7514 7.28698 16.3867 6.38917 17.7335 4.85678Z" fill="white"/>
</svg>
