<svg width="52" height="18" viewBox="0 0 52 18" fill="none" xmlns="http://www.w3.org/2000/svg">
<path d="M4.4126 4.41291H6.21025L5.31142 2.125L4.4126 4.41291Z" fill="#2FABF7"/>
<path d="M26.7201 2.45085C26.5566 2.36914 26.3115 2.36914 26.0664 2.36914H24.4321V3.67652H26.0664C26.3115 3.67652 26.5566 3.67652 26.7201 3.59481C26.8835 3.5131 26.9652 3.26796 26.9652 3.02283C27.0469 2.69598 26.8835 2.53256 26.7201 2.45085Z" fill="#228FE0"/>
<path d="M44.2057 0V0.980532L43.7155 0H39.875V0.980532L39.3848 0H34.1553C33.2564 0 32.521 0.163423 31.8673 0.490267V0H28.1903V0.490267C27.7818 0.163423 27.2915 0 26.6378 0H13.4823L12.5835 2.04278L11.6847 0H7.51742V0.980532L7.02716 0H3.51358L1.87936 3.84042L0 8.0894H4.16727L4.65753 6.78202H5.80149L6.29176 8.0894H11.031V7.10887L11.4396 8.0894H13.8092L14.2177 7.10887V8.0894H25.5756V5.96491H25.739C25.9024 5.96491 25.9024 5.96491 25.9024 6.21004V8.00769H31.7856V7.51742C32.2759 7.76255 33.0113 8.00769 33.9918 8.00769H36.4432L36.9334 6.70031H38.0774L38.5677 8.00769H43.3069V6.78202L44.0423 8.00769H47.8827V0H44.2057ZM16.5874 6.86373H15.1983V2.36962L13.2372 6.86373H12.0115L10.0505 2.36962V6.86373H7.27229L6.70031 5.63807H3.92213L3.43187 6.94544H1.87936L4.33069 1.14396H6.37347L8.66138 6.6186V1.14396H10.8676L12.6652 5.06609L14.2994 1.14396H16.5874V6.86373ZM22.1437 2.36962H18.957V3.43187H22.062V4.57582H18.957V5.71978H22.1437V6.94544H17.5679V1.14396H22.1437V2.36962ZM28.2721 4.73924C28.4355 5.06609 28.5172 5.31122 28.5172 5.80149V6.94544H27.1281V6.21004C27.1281 5.8832 27.1281 5.39293 26.883 5.06609C26.6378 4.82095 26.3927 4.82095 25.9024 4.82095H24.4316V6.94544H23.0425V1.14396H26.1476C26.883 1.14396 27.3732 1.14395 27.7818 1.38909C28.1903 1.63422 28.4355 2.04278 28.4355 2.69647C28.4355 3.59529 27.8635 4.08555 27.4549 4.24898C27.8635 4.33069 28.1086 4.57582 28.2721 4.73924ZM30.7234 6.86373H29.3343V1.06224H30.7234V6.86373ZM46.8205 6.86373H44.8594L42.2447 2.53304V6.86373H39.4665L38.9762 5.63807H36.1163L35.6261 6.94544H34.0735C33.4199 6.94544 32.6027 6.78202 32.1125 6.29175C31.6222 5.80149 31.3771 5.1478 31.3771 4.08556C31.3771 3.26844 31.5405 2.45133 32.1125 1.79764C32.521 1.30738 33.2564 1.14396 34.1553 1.14396H35.4626V2.36962H34.1553C33.665 2.36962 33.4199 2.45133 33.093 2.69647C32.8479 2.9416 32.6845 3.43187 32.6845 4.00384C32.6845 4.65753 32.7662 5.06609 33.093 5.39293C33.3381 5.63807 33.665 5.71978 34.0735 5.71978H34.6455L36.5249 1.22567H38.5677L40.8556 6.70031V1.22567H42.8983L45.268 5.22951V1.22567H46.6571V6.86373H46.8205Z" fill="#0571C1"/>
<path d="M36.6067 4.41291H38.486L37.5872 2.125L36.6067 4.41291ZM22.7158 16.1793V11.5218L20.5913 13.8097L22.7158 16.1793Z" fill="#228FE0"/>
<path d="M13.9731 12.0938V13.156H16.9965V14.2999H13.9731V15.5256H17.3233L18.8758 13.8097L17.405 12.0938H13.9731Z" fill="#2FABF7"/>
<path d="M25.8214 12.0938H24.1055V13.5646H25.9031C26.3934 13.5646 26.7202 13.3194 26.7202 12.8291C26.6385 12.3389 26.3117 12.0938 25.8214 12.0938Z" fill="#228FE0"/>
<path d="M51.0695 13.4827V9.80566H47.6376C46.9022 9.80566 46.3303 9.96909 45.9217 10.2959V9.80566H42.163C41.591 9.80566 40.8556 9.96909 40.5288 10.2959V9.80566H33.9102V10.2959C33.4199 9.88738 32.5211 9.80566 32.1125 9.80566H27.7001V10.2959C27.2916 9.88738 26.311 9.80566 25.8208 9.80566H20.9181L19.7742 11.0313L18.7119 9.80566H11.3579V17.8134H18.5485L19.6924 16.5877L20.7547 17.8134H25.1671V15.934H25.7391C26.311 15.934 27.0464 15.934 27.6184 15.6889V17.8951H31.2954V15.7706H31.4588C31.704 15.7706 31.704 15.7706 31.704 16.0157V17.8951H42.8167C43.5521 17.8951 44.2875 17.7316 44.696 17.4048V17.8951H48.2096C48.945 17.8951 49.6804 17.8134 50.1707 17.4865C50.9878 16.9962 51.4781 16.0974 51.4781 15.0352C51.4781 14.4632 51.3146 13.8912 51.0695 13.4827ZM25.7391 14.79H24.1048V16.7511H21.4901L19.8559 14.8718L18.1399 16.7511H12.747V10.9496H18.2216L19.8559 12.829L21.5718 10.9496H25.9025C26.9647 10.9496 28.1904 11.2765 28.1904 12.829C28.1087 14.4632 26.9647 14.79 25.7391 14.79ZM33.9102 14.4632C34.0736 14.7083 34.1553 15.0352 34.1553 15.5254V16.6694H32.7662V15.934C32.7662 15.6072 32.7662 15.0352 32.5211 14.79C32.3577 14.5449 32.0308 14.5449 31.5406 14.5449H30.0697V16.6694H28.6807V10.8679H31.7857C32.4394 10.8679 33.0114 10.8679 33.4199 11.113C33.8285 11.3582 34.1553 11.7667 34.1553 12.4204C34.1553 13.3192 33.5833 13.8095 33.1748 13.9729C33.5833 14.1364 33.8285 14.2998 33.9102 14.4632ZM39.5482 12.0936H36.3615V13.1558H39.4665V14.2998H36.3615V15.4437H39.5482V16.6694H34.9724V10.8679H39.5482V12.0936ZM42.9801 16.6694H40.3653V15.4437H42.9801C43.2252 15.4437 43.3887 15.4437 43.5521 15.2803C43.6338 15.1986 43.7155 15.0352 43.7155 14.8718C43.7155 14.7083 43.6338 14.5449 43.5521 14.4632C43.4704 14.3815 43.307 14.2998 43.0618 14.2998C41.7544 14.2181 40.2019 14.2998 40.2019 12.5021C40.2019 11.685 40.6922 10.7862 42.163 10.7862H44.8595V12.1753H42.3264C42.0813 12.1753 41.9179 12.1753 41.7544 12.257C41.591 12.3387 41.591 12.5021 41.591 12.6656C41.591 12.9107 41.7544 12.9924 41.9179 13.0741C42.0813 13.1558 42.2447 13.1558 42.4081 13.1558H43.1435C43.8789 13.1558 44.3692 13.3192 44.696 13.6461C44.9412 13.8912 45.1046 14.2998 45.1046 14.8718C45.1046 16.0974 44.3692 16.6694 42.9801 16.6694ZM50.0073 16.0974C49.6804 16.4243 49.1084 16.6694 48.2913 16.6694H45.6766V15.4437H48.2913C48.5365 15.4437 48.6999 15.4437 48.8633 15.2803C48.945 15.1986 49.0267 15.0352 49.0267 14.8718C49.0267 14.7083 48.945 14.5449 48.8633 14.4632C48.7816 14.3815 48.6182 14.2998 48.373 14.2998C47.0657 14.2181 45.5131 14.2998 45.5131 12.5021C45.5131 11.685 46.0034 10.7862 47.4742 10.7862H50.1707V12.1753H47.7193C47.4742 12.1753 47.3108 12.1753 47.1474 12.257C46.984 12.3387 46.9839 12.5021 46.9839 12.6656C46.9839 12.9107 47.0657 12.9924 47.3108 13.0741C47.4742 13.1558 47.6376 13.1558 47.8011 13.1558H48.5365C49.2719 13.1558 49.7621 13.3192 50.089 13.6461C50.1707 13.6461 50.1707 13.7278 50.1707 13.7278C50.4158 14.0546 50.4975 14.4632 50.4975 14.8718C50.4975 15.362 50.3341 15.7706 50.0073 16.0974Z" fill="#0571C1"/>
<path d="M32.4394 12.2572C32.276 12.1755 32.0309 12.1755 31.7857 12.1755H30.1515V13.4828H31.7857C32.0309 13.4828 32.276 13.4828 32.4394 13.4011C32.6028 13.3194 32.6846 13.0743 32.6846 12.8292C32.7663 12.5023 32.6028 12.3389 32.4394 12.2572ZM26.7196 2.45184C26.5562 2.37013 26.3111 2.37013 26.066 2.37013H24.4317V3.67751H26.066C26.3111 3.67751 26.5562 3.67751 26.7196 3.5958C26.8831 3.51409 26.9648 3.26895 26.9648 3.02382C27.0465 2.69698 26.8831 2.53356 26.7196 2.45184ZM36.6067 4.41291H38.486L37.5872 2.125L36.6067 4.41291ZM22.7158 16.1793V11.5218L20.5913 13.8097L22.7158 16.1793ZM25.8208 12.0938H24.1049V13.5646H25.9025C26.3928 13.5646 26.7196 13.3194 26.7196 12.8292C26.6379 12.3389 26.3111 12.0938 25.8208 12.0938Z" fill="#228FE0"/>
<path d="M32.4398 12.2575C32.2763 12.1758 32.0312 12.1758 31.7861 12.1758H30.1519V13.4832H31.7861C32.0312 13.4832 32.2763 13.4832 32.4398 13.4014C32.6032 13.3197 32.6849 13.0746 32.6849 12.8295C32.7666 12.5026 32.6032 12.3392 32.4398 12.2575Z" fill="#228FE0"/>
<path d="M25.2488 16.506L24.1049 15.2803V16.6694H21.4084L19.7742 14.79L17.9765 16.6694H12.5836V10.9496H18.0582L19.7742 12.829L20.5913 11.8484L18.5485 9.80566H11.3579V17.8134H18.5485L19.7742 16.5877L20.8364 17.8134H25.2488V16.506Z" fill="#2FABF7"/>
<path d="M16.7508 8.00769L15.6885 6.86373H15.1983V6.37347L13.9726 5.1478L13.1555 6.86373H12.0115L10.0505 2.36962V6.86373H7.27229L6.70031 5.63807H3.92213L3.35016 6.86373H1.87936L4.33069 1.14396H6.37347L8.66138 6.6186V1.14396H9.88704L8.74309 0H7.51742V0.980532L7.10887 0H3.51358L1.87936 3.84042L0 8.00769H4.24898L4.73924 6.78202H5.8832L6.45518 8.00769H11.031V7.02716L11.4396 8.00769H13.8092L14.2177 7.02716V8.00769H16.7508Z" fill="#2FABF7"/>
<path d="M12.9919 4.24976L11.6846 2.94238L12.6651 5.06687L12.9919 4.24976Z" fill="#2FABF7"/>
<path d="M50.1711 17.4048C50.9065 16.9145 51.3967 16.0974 51.4785 15.1986L50.3345 14.0547C50.4162 14.2998 50.4979 14.5449 50.4979 14.8718C50.4979 15.362 50.3345 15.7706 50.0077 16.0974C49.6808 16.4243 49.1088 16.6694 48.2917 16.6694H45.677V15.4437H48.2917C48.5369 15.4437 48.7003 15.4437 48.8637 15.2803C48.9454 15.1986 49.0271 15.0352 49.0271 14.8718C49.0271 14.7083 48.9454 14.5449 48.8637 14.4632C48.782 14.3815 48.6186 14.2998 48.3734 14.2998C47.0661 14.2181 45.5135 14.2998 45.5135 12.5021C45.5135 11.685 46.0038 10.9496 47.2295 10.7862L46.3307 9.88739C46.1672 9.9691 46.0855 10.0508 46.0038 10.0508V9.56055H42.2451C41.6731 9.56055 40.9377 9.72397 40.6109 10.0508V9.56055H33.9106V10.0508C33.4203 9.64226 32.5215 9.56055 32.1129 9.56055H27.7005V10.0508C27.292 9.64226 26.3114 9.56055 25.8212 9.56055H20.9185L19.7745 10.7862L18.7123 9.56055H17.8135L20.2648 12.0119L21.4905 10.7045H25.8212C26.8834 10.7045 28.1091 11.0313 28.1091 12.5839C28.1091 14.2181 26.9651 14.5449 25.7395 14.5449H24.1052V15.7706L25.3309 16.9963V15.7706H25.7395C26.3114 15.7706 27.0468 15.7706 27.6188 15.5255V17.7317H31.2958V15.6072H31.4592C31.7044 15.6072 31.7044 15.6072 31.7044 15.8523V17.7317H42.8171C43.5525 17.7317 44.2879 17.5682 44.6964 17.2414V17.7317H48.21C48.8637 17.8134 49.5991 17.7317 50.1711 17.4048ZM33.9106 14.4632C34.074 14.7083 34.1557 15.0352 34.1557 15.5255V16.6694H32.7666V15.934C32.7666 15.6072 32.7666 15.0352 32.5215 14.7901C32.3581 14.5449 32.0312 14.5449 31.5409 14.5449H30.0701V16.6694H28.6811V10.8679H31.7861C32.4398 10.8679 33.0117 10.8679 33.4203 11.1131C33.8289 11.3582 34.1557 11.7667 34.1557 12.4204C34.1557 13.3193 33.5837 13.8095 33.1752 13.9729C33.5837 14.1364 33.8289 14.2998 33.9106 14.4632ZM39.5486 12.0936H36.3619V13.1558H39.4669V14.2998H36.3619V15.4437H39.5486V16.6694H34.9728V10.8679H39.5486V12.0936ZM42.9805 16.6694H40.3657V15.4437H42.9805C43.2256 15.4437 43.3891 15.4437 43.5525 15.2803C43.6342 15.1986 43.7159 15.0352 43.7159 14.8718C43.7159 14.7083 43.6342 14.5449 43.5525 14.4632C43.4708 14.3815 43.3073 14.2998 43.0622 14.2998C41.7548 14.2181 40.2023 14.2998 40.2023 12.5021C40.2023 11.685 40.6926 10.7862 42.1634 10.7862H44.8599V12.1753H42.3268C42.0817 12.1753 41.9183 12.1753 41.7548 12.257C41.5914 12.3387 41.5914 12.5021 41.5914 12.6656C41.5914 12.9107 41.7548 12.9924 41.9183 13.0741C42.0817 13.1558 42.2451 13.1558 42.4085 13.1558H43.1439C43.8793 13.1558 44.3696 13.3193 44.6964 13.6461C44.9416 13.8912 45.105 14.2998 45.105 14.8718C45.105 16.0974 44.3696 16.6694 42.9805 16.6694Z" fill="#228FE0"/>
<path d="M46.9033 12.666C46.9033 12.9112 46.985 12.9929 47.2302 13.0746C47.3936 13.1563 47.557 13.1563 47.7204 13.1563H48.4558C48.9461 13.1563 49.2729 13.238 49.5998 13.4014L48.3741 12.1758H47.6387C47.3936 12.1758 47.2302 12.1758 47.0667 12.2575C46.985 12.3392 46.9033 12.5026 46.9033 12.666Z" fill="#228FE0"/>
<path d="M44.043 7.76266L44.2064 8.0078H44.2881L44.043 7.76266ZM39.5488 3.26855L40.9379 6.61871V4.65764L39.5488 3.26855Z" fill="#228FE0"/>
<path d="M25.5755 5.96523H25.739C25.9024 5.96523 25.9024 5.96523 25.9024 6.21037V8.00801H31.7856V7.51774C32.2759 7.76288 33.0113 8.00801 33.9918 8.00801H36.4431L36.9334 6.70063H38.0773L38.5676 8.00801H43.3069V7.1909L42.1629 6.04694V6.94577H39.3847L38.9762 5.63839H36.1163L35.626 6.94577H34.0735C33.4198 6.94577 32.6027 6.78234 32.1124 6.29208C31.6222 5.80181 31.377 5.14812 31.377 4.08588C31.377 3.26876 31.5405 2.45165 32.1124 1.79796C32.521 1.3077 33.2564 1.14428 34.1552 1.14428H35.4626V2.36994H34.1552C33.6649 2.36994 33.4198 2.45165 33.093 2.69679C32.8478 2.94192 32.6844 3.43219 32.6844 4.00416C32.6844 4.65785 32.7661 5.06641 33.093 5.39325C33.3381 5.63839 33.6649 5.7201 34.0735 5.7201H34.6455L36.5248 1.22599H37.3419L36.198 0.0820312H34.0735C33.1747 0.0820312 32.4393 0.245452 31.7856 0.572297V0.0820312H28.1903V0.572297C27.7817 0.245452 27.2915 0.0820312 26.6378 0.0820312H13.4823L12.5835 2.12481L11.6846 0.0820312H8.08936L9.23331 1.22599H10.8675L12.2566 4.2493L12.7469 4.73956L14.2177 1.14428H16.5056V6.94577H15.1165V2.45165L13.7274 5.7201L16.097 8.08972H25.4938L25.5755 5.96523ZM29.3343 1.14428H30.7233V6.94577H29.3343V1.14428ZM22.1437 2.36994H18.9569V3.43219H22.062V4.57614H18.9569V5.7201H22.1437V6.94577H17.5678V1.14428H22.1437V2.36994ZM24.4316 6.86405H23.0425V1.06256H26.1475C26.8829 1.06256 27.3732 1.06256 27.7817 1.3077C28.1903 1.55283 28.4354 1.96139 28.4354 2.61508C28.4354 3.5139 27.8634 4.00417 27.4549 4.16759C27.7817 4.2493 28.0269 4.49443 28.1086 4.65785C28.272 4.9847 28.3537 5.22983 28.3537 5.7201V6.86405H26.9646V6.12865C26.9646 5.80181 26.9646 5.31154 26.7195 4.9847C26.6378 4.82128 26.3927 4.82128 25.9024 4.82128H24.4316V6.86405Z" fill="#228FE0"/>
</svg>
