<svg width="74" height="13" viewBox="0 0 74 13" fill="none" xmlns="http://www.w3.org/2000/svg">
<path d="M39.1964 12.512C42.6184 12.512 45.3924 9.73799 45.3924 6.31606C45.3924 2.89413 42.6184 0.120117 39.1964 0.120117C35.7745 0.120117 33.0005 2.89413 33.0005 6.31606C33.0005 9.73799 35.7745 12.512 39.1964 12.512Z" fill="#EF9122"/>
<path d="M33.0005 6.31606C33.0005 2.86063 35.741 0.120117 39.1964 0.120117C42.6519 0.120117 45.3924 2.86063 45.3924 6.31606C45.3924 9.77149 42.6519 12.512 39.1964 12.512" fill="#F26E21"/>
<path d="M34.9072 1.90741C37.2903 -0.475647 41.2223 -0.475647 43.6054 1.90741C45.9885 4.29046 45.9885 8.22251 43.6054 10.6056" fill="#F44500"/>
<path d="M3.33628 0.477552H0V12.1545H3.33628C5.12357 12.1545 6.43425 11.6779 7.50663 10.8438C8.81731 9.77147 9.65138 8.10333 9.65138 6.31604C9.65138 2.86061 7.14917 0.477552 3.33628 0.477552ZM6.07679 9.29486C5.36188 9.89062 4.40865 10.2481 2.97882 10.2481H2.2639V2.50315H2.85967C4.2895 2.50315 5.24272 2.74146 5.95764 3.45637C6.79171 4.17129 7.26832 5.24366 7.26832 6.31604C7.38748 7.38841 6.91086 8.57994 6.07679 9.29486ZM10.7238 0.477552H12.9877V12.1545H10.7238V0.477552ZM18.707 5.00536C17.2772 4.52875 16.9197 4.17129 16.9197 3.57553C16.9197 2.86061 17.6346 2.26484 18.5878 2.26484C19.3028 2.26484 19.8985 2.50315 20.4943 3.21807L21.6858 1.66908C20.7326 0.83501 19.5411 0.358398 18.2304 0.358398C16.2048 0.358398 14.5366 1.78823 14.5366 3.69468C14.5366 5.36282 15.2516 6.07773 17.3963 6.9118C18.3495 7.26926 18.707 7.38842 18.9453 7.62672C19.4219 7.86503 19.6602 8.34164 19.6602 8.81825C19.6602 9.77147 18.9453 10.4864 17.8729 10.4864C16.8005 10.4864 15.8473 9.89062 15.3707 8.9374L13.9409 10.3672C15.0133 11.9162 16.3239 12.6311 17.9921 12.6311C20.3751 12.6311 22.0433 11.0822 22.0433 8.81825C22.0433 6.79265 21.3284 5.95858 18.707 5.00536Z" fill="#595A5B"/>
<path d="M22.7544 6.3151C22.7544 9.77053 25.4949 12.3919 28.9504 12.3919C29.9036 12.3919 30.7377 12.1536 31.81 11.677V8.93646C30.8568 9.88968 30.0227 10.2471 29.0695 10.2471C26.8056 10.2471 25.1375 8.579 25.1375 6.19594C25.1375 3.93204 26.8056 2.14475 28.9504 2.14475C30.0227 2.14475 30.8568 2.50221 31.81 3.45543V0.714917C30.8568 0.238306 30.0227 0 28.9504 0C25.6141 0.238306 22.7544 2.97882 22.7544 6.3151Z" fill="#3B3D3F"/>
<path d="M50.5133 8.34065L47.4153 0.476562H44.9131L49.7983 12.511H51.109L56.2326 0.476562H53.7304L50.5133 8.34065ZM57.1858 12.1535H63.7392V10.2471H59.5689V7.02997H63.6201V5.00437H59.5689V2.50216H63.7392V0.476562H57.1858V12.1535Z" fill="black"/>
<path d="M70.1699 7.26817C71.9569 6.91077 72.91 5.71943 72.91 3.93242C72.91 1.78801 71.3613 0.477533 68.7403 0.477533H65.2854V12.1527H67.549V7.50644H67.9064L71.123 12.1527H73.8631L70.1699 7.26817V7.26817ZM68.2638 5.83856H67.549V2.26454H68.2638C69.6934 2.26454 70.5273 2.86021 70.5273 4.05155C70.5273 5.24289 69.6934 5.83856 68.2638 5.83856ZM3.33575 0.477533H0V12.1527H3.33575C5.12276 12.1527 6.43324 11.6761 7.50544 10.8422C8.81592 9.76998 9.64985 8.10211 9.64985 6.3151C9.64985 2.86021 7.14804 0.477533 3.33575 0.477533V0.477533ZM6.07583 9.29345C5.36103 9.88912 4.40796 10.2465 2.97835 10.2465H2.26355V2.50281H2.85922C4.28882 2.50281 5.2419 2.74108 5.9567 3.45588C6.79064 4.17069 7.26717 5.24289 7.26717 6.3151C7.38631 7.3873 6.90977 8.57864 6.07583 9.29345ZM10.7221 0.477533H12.9856V12.1527H10.7221V0.477533ZM18.704 5.00462C17.2744 4.52809 16.917 4.17069 16.917 3.57502C16.917 2.86021 17.6318 2.26454 18.5849 2.26454C19.2997 2.26454 19.8954 2.50281 20.491 3.21761L21.6824 1.66887C20.7293 0.834935 19.538 0.358398 18.2275 0.358398C16.2022 0.358398 14.5343 1.78801 14.5343 3.69415C14.5343 5.36203 15.2492 6.07683 17.3936 6.91077C18.3466 7.26817 18.704 7.3873 18.9423 7.62557C19.4188 7.86384 19.6571 8.34038 19.6571 8.81691C19.6571 9.76998 18.9423 10.4848 17.8701 10.4848C16.7979 10.4848 15.8448 9.88912 15.3683 8.93605L13.9387 10.3657C15.0109 11.9144 16.3214 12.6292 17.9892 12.6292C20.3719 12.6292 22.0398 11.0805 22.0398 8.81691C22.0398 6.79163 21.325 5.9577 18.704 5.00462V5.00462ZM29.0687 12.3909C30.0218 12.3909 30.8557 12.1527 31.9279 11.6761V8.93605C30.9748 9.88912 30.1409 10.2465 29.1878 10.2465C26.9243 10.2465 25.2564 8.57864 25.2564 6.19596C25.2564 5.00462 25.7329 4.05155 26.4477 3.21761L24.899 1.66887C23.7077 2.74108 22.8737 4.40895 22.8737 6.19596C22.7546 9.76998 25.4947 12.3909 29.0687 12.3909V12.3909Z" fill="#595A5B"/>
<path d="M70.1709 7.26827C71.9582 6.91081 72.9114 5.71928 72.9114 3.93199C72.9114 1.78724 71.3624 0.476562 68.7411 0.476562H65.2856V12.1535H67.5496V7.50658H67.907L71.1241 12.1535H73.8647L70.1709 7.26827ZM68.2645 5.83844H67.5496V2.26385H68.2645C69.6943 2.26385 70.5284 2.85962 70.5284 4.05115C70.5284 5.24267 69.6943 5.83844 68.2645 5.83844Z" fill="black"/>
<path d="M61.7109 10.2475H59.5662V8.10278L57.1831 5.71973V12.154H63.6174L61.7109 10.2475Z" fill="#3B3D3F"/>
<path d="M53.1346 1.66809L50.5133 8.34065L47.4153 0.476562H44.9131L49.7983 12.511H51.109L54.9219 3.45538L53.1346 1.66809Z" fill="#3B3D3F"/>
</svg>
