<svg width="34" height="20" viewBox="0 0 34 20" fill="none" xmlns="http://www.w3.org/2000/svg">
<path fill-rule="evenodd" clip-rule="evenodd" d="M6.47694 9.78719L6.67227 9.01616C7.42274 8.78999 8.95453 8.68718 9.24238 9.49934C9.40687 9.97224 8.93397 11.9358 8.84144 12.5115L8.11153 12.5218C7.94704 12.3162 8.08069 12.6966 7.9676 12.1928C7.26853 12.8199 5.77787 12.7171 5.89095 11.4526C6.00404 10.1984 7.09377 10.3629 8.27602 10.1779C8.25546 9.37597 7.24797 9.59186 6.46666 9.77691L6.47694 9.78719ZM11.977 9.66383C11.3088 9.66383 11.2059 9.5199 10.62 9.77691C10.6919 10.5068 11.0723 10.219 11.5966 10.5685C12.5938 11.2265 11.5246 13.262 9.14986 12.3881L9.2835 11.648C9.95173 11.7816 10.291 11.9152 10.805 11.6274C10.9284 10.5891 9.08817 11.2676 9.6022 9.60215C9.87977 8.69746 11.1031 8.82083 12.1106 8.91335L11.9667 9.66383H11.977ZM1.73765 8.09092L3.31056 8.14232L3.47505 10.6096L4.32832 8.63578C4.61618 7.92643 4.42085 8.08064 6.23021 8.1012L5.41805 12.5115L4.53393 12.5012L5.01711 9.33485L3.7115 12.5218L2.65261 12.491C2.62177 11.8741 2.57037 9.70495 2.40588 9.29373L1.8713 12.5012L0.946055 12.491L1.73765 8.09092ZM16.7368 17.4564L17.1686 16.9424C16.3051 16.8293 16.1508 17.076 15.7602 16.377L17.7443 16.3564C17.8677 16.1508 18.0733 15.9555 18.1761 15.719C15.9144 15.5648 15.277 16.1405 14.9172 15.1536H18.5462L18.9471 14.5265L14.4649 14.5059L14.2592 13.9816L19.0911 13.9611C19.3686 13.8069 19.3686 13.6321 19.4406 13.3134L14.8658 13.3031C14.0434 13.3134 13.992 13.4984 13.8377 12.748H19.5948L19.7798 12.1106L18.0939 12.09L18.0116 12.5218L17.0452 12.4807L17.6518 8.89279L18.5668 9.01616C18.5668 9.03672 18.5873 9.10868 18.5873 9.13952C18.5873 9.16009 18.5976 9.19093 18.5976 9.20121L18.649 9.38626C18.906 9.07784 19.0705 8.85167 19.6668 8.87223L19.3583 9.70495C19.1836 9.93112 18.6696 9.67411 18.4537 10.2909L19.4612 10.3321C19.5742 9.68439 19.6976 9.48906 19.8827 8.96476L19.8929 8.65634L13.591 8.66662L13.5705 8.89279C13.9097 8.89279 13.8994 8.83111 14.0948 8.9956L14.0022 9.60215C13.3648 9.75635 13.3854 9.37597 13.3237 10.2087C13.4162 10.3629 13.3032 10.2807 13.4985 10.3321L13.8994 10.3423C14.5471 8.23484 16.4798 8.69746 16.9219 9.35541C17.1583 9.70495 17.3948 10.8564 16.8088 10.9489L14.8452 10.9694C14.9378 12.0078 16.1303 11.7919 16.9013 11.5349C16.8705 11.9667 16.9013 12.3162 16.5004 12.4601C16.1817 12.5732 15.5135 12.5424 15.1639 12.4601C14.3004 12.2648 13.9303 11.833 13.8686 10.8975L13.4985 10.8872C13.1592 10.733 13.4265 10.8872 13.2518 10.4657C13.1078 11.3293 12.7172 11.8844 13.7863 11.761C13.7247 12.2751 13.7966 12.4498 13.2312 12.5115C11.5863 12.7068 12.1209 11.6068 12.3882 10.1367C12.8097 7.79278 12.4807 8.08064 13.6733 8.1012L19.8004 8.11148L19.677 7.47409L13.7555 7.45353L13.8686 6.93951L19.4714 6.90867C19.3275 6.03483 19.2967 6.25072 17.2611 6.25072H14.1564C14.3723 5.50024 14.2592 5.70585 16.2742 5.70585H18.9985L18.7107 5.05818L14.763 5.0479L15.0303 4.51332L18.3303 4.49276C17.9088 3.6292 17.9294 3.87593 15.5957 3.83481C15.8938 3.09462 16.4181 3.27966 17.3331 3.27966C17.0761 2.86845 16.891 2.89929 16.7368 2.54975C16.3565 2.35442 16.0172 2.00489 15.6368 1.7376C12.7275 -0.318494 8.77976 -0.534384 5.61338 1.00768C2.76569 2.38527 -0.0305886 5.57221 0.000252791 9.98252C0.0413746 16.2844 5.57226 20.8798 11.8331 19.8106C14.7733 19.3069 15.5135 18.1144 16.7266 17.4461L16.7368 17.4564Z" fill="#E41D2C"/>
<path fill-rule="evenodd" clip-rule="evenodd" d="M23.4497 8.98614C26.6367 8.33847 26.1124 9.91138 25.8554 11.1862C25.7731 11.5665 25.7731 12.317 25.475 12.5226C25.403 12.5226 24.9815 12.5329 24.9404 12.5123C24.6526 12.3992 24.7862 12.7385 24.7451 12.2142C23.8815 12.7077 22.5142 12.8207 22.6787 11.4432C22.8124 10.3432 23.9226 10.1684 25.0535 10.2198C25.0124 9.40763 24.2722 9.54128 23.2441 9.79829L23.46 8.98614H23.4497ZM26.5956 8.89361L27.4488 8.90389C27.4591 8.92445 27.4694 8.95529 27.4694 8.97585L27.6031 9.35623C27.7573 9.11978 28.0451 8.91417 28.4974 8.90389L28.3741 9.6338L27.9526 9.79829C27.1096 10.0759 27.161 11.1348 26.9348 12.5226H25.9787L26.5956 8.89361ZM31.1292 8.1123H32.0031L31.2526 12.5329C30.276 12.5432 30.5124 12.5946 30.204 12.2245C29.5666 13.1703 27.6545 12.2964 28.2404 10.3432C28.6722 8.88333 30.132 8.49267 30.8517 9.35623L31.1395 8.10202L31.1292 8.1123ZM16.7469 2.56085C16.9011 2.91038 17.0964 2.87954 17.3432 3.29076C16.4282 3.29076 15.9039 3.09543 15.6058 3.84591C17.9394 3.88703 17.9189 3.6403 18.3404 4.50385L15.0403 4.52442L14.773 5.059L18.7207 5.06928L19.0086 5.71695H16.2843C14.2796 5.71695 14.3824 5.52162 14.1665 6.26181H17.2712C19.3067 6.26181 19.3376 6.04592 19.4815 6.91976L13.8786 6.9506L13.7656 7.46463L19.6871 7.48519L19.8105 8.12258L13.6833 8.1123L13.6011 8.688L19.903 8.67772L19.8927 8.98614C20.3656 8.5338 20.2834 8.29734 21.1675 8.04033C21.8974 7.83472 22.36 7.98893 23.0797 8.14314L22.9254 9.08894C21.6918 8.71884 20.8899 8.81137 20.6021 10.0861C20.2834 11.4534 21.3628 11.9675 22.5039 11.4226C22.4011 12.4198 22.2367 12.6665 21.0647 12.5123C20.2525 12.4095 20.0058 12.0189 19.646 11.5357H18.1759L18.0936 12.1011L19.7796 12.1217L19.5946 12.7591H13.8375C13.9917 13.5095 14.0431 13.3245 14.8656 13.3142L19.4404 13.3245C19.3581 13.6329 19.3684 13.818 19.0908 13.9722L14.259 13.9927L14.4646 14.517L18.9469 14.5376L18.546 15.1647H14.917C15.2768 16.1413 15.9142 15.5759 18.1759 15.7301C18.0731 15.9666 17.8675 16.1619 17.7441 16.3675L15.76 16.3881C16.1403 17.0769 16.3048 16.8404 17.1684 16.9535L16.7366 17.4675C18.2067 18.547 19.3478 19.4516 21.7226 19.8629C23.8815 20.233 26.1329 19.8217 27.8703 18.9685C35.3956 15.2572 35.19 4.56554 27.8087 1.02906C25.1563 -0.235438 21.6404 -0.348523 18.8955 1.09074C17.5693 1.77953 17.2506 2.27299 16.7572 2.57113L16.7469 2.56085Z" fill="#F8B02B"/>
<path fill-rule="evenodd" clip-rule="evenodd" d="M0.945312 12.5027L1.87058 12.513L2.40518 9.3054C2.56967 9.71662 2.62107 11.8859 2.65191 12.5027L3.71083 12.5335L5.01648 9.34652L4.53329 12.513L5.41743 12.5233L6.22961 8.11283C4.4202 8.09227 4.61553 7.93806 4.32767 8.64743L3.47437 10.6213L3.30988 8.15395L1.73693 8.10255L0.945312 12.5027ZM29.5874 11.6905C28.8164 10.8989 29.4743 9.58297 30.194 9.75775C30.9033 9.93252 30.7697 11.67 29.5874 11.6905ZM30.8417 9.3568C30.122 8.49322 28.6724 8.88389 28.2304 10.3437C27.6444 12.2868 29.5566 13.1709 30.194 12.2251C30.5024 12.5952 30.2659 12.5335 31.2426 12.5335L31.9931 8.11283H31.1192L30.8314 9.36708L30.8417 9.3568ZM23.7788 11.7008C23.6349 11.012 24.2723 10.7447 24.8788 10.8681C24.9097 11.5672 24.4162 11.9475 23.7788 11.7008ZM23.4498 8.99697L23.2339 9.80915C24.262 9.56241 25.0125 9.42876 25.0433 10.2307C23.9125 10.1793 22.8021 10.354 22.6685 11.4541C22.4937 12.8317 23.8713 12.7186 24.7349 12.2251C24.776 12.7494 24.6424 12.4102 24.9302 12.5233C24.9714 12.5438 25.3929 12.5335 25.4648 12.5335C25.7733 12.3382 25.7733 11.5774 25.8452 11.197C26.1125 9.91196 26.6266 8.34929 23.4395 8.99697H23.4498ZM8.11098 10.8372C8.13154 11.1868 8.06986 11.4541 7.84368 11.6288C7.68947 11.7419 7.22684 11.8756 7.04178 11.7008C6.46606 11.1765 7.54554 10.8269 8.1007 10.8372H8.11098ZM6.47634 9.78859C7.25768 9.60354 8.26519 9.38764 8.28575 10.1895C7.10347 10.3746 6.01371 10.2101 5.90062 11.4643C5.77725 12.7289 7.26796 12.8317 7.97733 12.2046C8.09042 12.7083 7.95677 12.3279 8.12126 12.5335L8.85119 12.5233C8.94372 11.9373 9.41663 9.98392 9.25214 9.51101C8.96428 8.68855 7.44273 8.79136 6.68196 9.02782L6.48662 9.79887L6.47634 9.78859ZM14.9991 10.3026C15.1327 9.77831 15.3589 9.56241 15.9655 9.64466C16.1813 9.95308 16.1813 9.86055 16.2225 10.3026H14.9991ZM13.9093 10.354L13.8682 10.9092C13.9299 11.8447 14.3103 12.2662 15.1636 12.4719C15.5131 12.5541 16.1813 12.5849 16.5001 12.4719C16.901 12.3382 16.8702 11.9784 16.901 11.5466C16.1299 11.8036 14.9374 12.0195 14.8449 10.9812L16.8085 10.9606C17.3945 10.8681 17.158 9.7269 16.9216 9.36708C16.4795 8.70911 14.5467 8.24648 13.899 10.354H13.9093ZM19.8927 8.98669C19.7076 9.51101 19.5843 9.70634 19.4712 10.354V10.9195L19.646 11.5466C20.0058 12.0298 20.2525 12.4205 21.0647 12.5233C22.2367 12.6775 22.4012 12.4307 22.504 11.4335C21.3526 11.9784 20.2834 11.4643 20.6021 10.097C20.9002 8.81192 21.7021 8.72967 22.9255 9.09978L23.0797 8.15395C22.3601 8.01002 21.8974 7.85581 21.1675 8.05115C20.2834 8.29788 20.3656 8.54462 19.8927 8.99697V8.98669ZM12.1102 8.91473C11.1027 8.83248 9.87926 8.69883 9.60168 9.60354C9.08765 11.269 10.9176 10.5905 10.8045 11.6288C10.2802 11.9167 9.95123 11.783 9.28298 11.6494L9.14933 12.3896C11.5242 13.2635 12.5831 11.2382 11.5961 10.5699C11.0718 10.2204 10.6914 10.5185 10.6195 9.77831C11.2055 9.51101 11.298 9.66522 11.9765 9.66522L12.1205 8.91473H12.1102Z" fill="#FEFEFE"/>
<path fill-rule="evenodd" clip-rule="evenodd" d="M13.2621 10.4768L13.3341 10.2301C13.3957 9.3974 13.3752 9.77778 14.0126 9.62357L14.1051 9.01702C13.9098 8.85253 13.9201 8.91422 13.5808 8.91422L13.6014 8.68805L13.6836 8.11234C12.4911 8.09178 12.82 7.80393 12.3985 10.1479C12.1313 11.618 11.5967 12.718 13.2415 12.5227C13.7967 12.461 13.735 12.2862 13.7967 11.7722C12.7378 11.8956 13.1285 11.3404 13.2621 10.4768ZM18.0939 12.1114L18.1762 11.546L18.279 10.9292L18.464 10.3124C18.6902 9.69553 19.2042 9.95254 19.3687 9.72637L19.6771 8.89366C19.0706 8.8731 18.9061 9.09927 18.6593 9.40768L18.6079 9.22263C18.6079 9.21235 18.5977 9.18151 18.5977 9.16095C18.5977 9.14039 18.5771 9.05814 18.5771 9.03758L17.6621 8.91422L17.0556 12.5021L18.022 12.5432L18.1042 12.1114H18.0939ZM25.979 12.5227H26.9351C27.1613 11.1348 27.1099 10.0759 27.9529 9.79834L28.3744 9.63385L28.4977 8.90394C28.0454 8.91422 27.7575 9.11983 27.6033 9.35628L27.4697 8.9759C27.4594 8.95534 27.4594 8.9245 27.4491 8.90394L26.5959 8.89366L25.979 12.5227Z" fill="#FEFEFE"/>
<path fill-rule="evenodd" clip-rule="evenodd" d="M29.586 11.6858C30.7785 11.6653 30.9121 9.92787 30.1925 9.7531C29.4626 9.57834 28.8149 10.8942 29.586 11.6858Z" fill="#F8B02B"/>
<path fill-rule="evenodd" clip-rule="evenodd" d="M8.11131 10.8352C7.55617 10.8249 6.47672 11.1744 7.05242 11.6987C7.23747 11.8632 7.70009 11.7296 7.8543 11.6268C8.08047 11.4623 8.13187 11.1847 8.12159 10.8352H8.11131ZM18.1759 11.5343L19.646 11.5445L19.4712 10.9174H18.2787L18.1759 11.5343Z" fill="#E41D2C"/>
<path fill-rule="evenodd" clip-rule="evenodd" d="M23.7793 11.7019C24.427 11.9383 24.9102 11.5682 24.8793 10.8691C24.2625 10.7561 23.6354 11.0233 23.7793 11.7019ZM18.2793 10.9205H19.4718V10.3551L18.4643 10.3037L18.2793 10.9205Z" fill="#F8B02B"/>
<path fill-rule="evenodd" clip-rule="evenodd" d="M14.9995 10.3009H16.2229C16.192 9.86914 16.1818 9.95138 15.9659 9.64297C15.3593 9.56072 15.1332 9.77661 14.9995 10.3009Z" fill="#E41D2C"/>
<path fill-rule="evenodd" clip-rule="evenodd" d="M13.2622 10.4806C13.437 10.9021 13.1697 10.7479 13.5089 10.9021L13.879 10.9124L13.9201 10.3573L13.5192 10.347C13.3136 10.3059 13.4267 10.3778 13.3444 10.2236L13.2725 10.4704L13.2622 10.4806Z" fill="#F8B02B"/>
</svg>
