<svg width="74" height="18" viewBox="0 0 74 18" fill="none" xmlns="http://www.w3.org/2000/svg">
<path fill-rule="evenodd" clip-rule="evenodd" d="M6.44483 4.21289H11.4921C14.202 4.21289 15.2222 5.5848 15.0645 7.60032C14.804 10.9278 12.7923 12.7688 10.1241 12.7688H8.77694C8.41084 12.7688 8.1646 13.0111 8.06558 13.6677L7.49363 17.4851C7.45584 17.7326 7.32556 17.8759 7.13013 17.8955H3.95897C3.66062 17.8955 3.55509 17.6675 3.63326 17.1737L5.5667 4.93598C5.64227 4.4461 5.91065 4.21289 6.44483 4.21289Z" fill="#009EE3"/>
<path fill-rule="evenodd" clip-rule="evenodd" d="M28.3578 3.98535C30.0607 3.98535 31.6319 4.90908 31.4169 7.21123C31.1564 9.94723 29.6906 11.4611 27.3781 11.4677H25.3573C25.0668 11.4677 24.9261 11.7048 24.8505 12.1907L24.4597 14.6753C24.401 15.0505 24.2082 15.2355 23.9242 15.2355H22.0442C21.7445 15.2355 21.6403 15.044 21.7067 14.6154L23.2584 4.65763C23.3353 4.16775 23.519 3.98535 23.8538 3.98535H28.3539H28.3578ZM25.2961 9.31664H26.827C27.7846 9.28016 28.4203 8.61701 28.4842 7.42098C28.5233 6.68226 28.0243 6.1533 27.2308 6.15721L25.7899 6.16373L25.2961 9.31664ZM36.528 14.4733C36.7 14.317 36.8746 14.2362 36.8498 14.4291L36.7886 14.8903C36.7573 15.1313 36.8524 15.259 37.0765 15.259H38.7468C39.0282 15.259 39.165 15.1456 39.2341 14.7105L40.2633 8.2509C40.3154 7.92649 40.236 7.76755 39.9897 7.76755H38.1527C37.9872 7.76755 37.9065 7.86005 37.8635 8.1128L37.7957 8.51017C37.7605 8.71733 37.6654 8.75381 37.5768 8.54535C37.2655 7.80793 36.4707 7.47701 35.362 7.50307C32.7862 7.55648 31.0495 9.51207 30.8632 12.0188C30.7199 13.9574 32.1087 15.4805 33.9406 15.4805C35.2695 15.4805 35.8636 15.0896 36.5332 14.4773L36.528 14.4733ZM35.1288 13.4793C34.02 13.4793 33.2474 12.5946 33.4077 11.5107C33.5679 10.4267 34.605 9.54204 35.7137 9.54204C36.8225 9.54204 37.5951 10.4267 37.4348 11.5107C37.2746 12.5946 36.2388 13.4793 35.1288 13.4793ZM43.5322 7.7467H41.8385C41.4893 7.7467 41.3473 8.00727 41.458 8.32777L43.5609 14.4851L41.4984 17.4152C41.3252 17.6601 41.4594 17.8829 41.703 17.8829H43.6065C43.7174 17.8958 43.8297 17.8764 43.9299 17.8272C44.0302 17.778 44.1142 17.701 44.1719 17.6054L50.6393 8.32908C50.8386 8.04375 50.7448 7.74409 50.4178 7.74409H48.616C48.3072 7.74409 48.1834 7.86656 48.0062 8.12323L45.3093 12.0318L44.1042 8.11411C44.0338 7.87699 43.8579 7.7467 43.5335 7.7467H43.5322Z" fill="#113984"/>
<path fill-rule="evenodd" clip-rule="evenodd" d="M57.3682 3.98503C59.0711 3.98503 60.6423 4.90876 60.4273 7.2109C60.1668 9.9469 58.7011 11.4608 56.3885 11.4673H54.3691C54.0785 11.4673 53.9378 11.7045 53.8622 12.1904L53.4714 14.675C53.4128 15.0502 53.2199 15.2352 52.9359 15.2352H51.0559C50.7562 15.2352 50.652 15.0437 50.7184 14.615L52.2728 4.6547C52.3496 4.16482 52.5333 3.98242 52.8682 3.98242H57.3682V3.98503ZM54.3065 9.31632H55.8374C56.795 9.27984 57.4308 8.61669 57.4946 7.42066C57.5337 6.68194 57.0347 6.15298 56.2413 6.15689L54.8003 6.16341L54.3065 9.31632ZM65.5385 14.473C65.7104 14.3167 65.885 14.2359 65.8603 14.4287L65.799 14.8899C65.7678 15.131 65.8629 15.2586 66.087 15.2586H67.7572C68.0386 15.2586 68.1754 15.1453 68.2445 14.7101L69.2738 8.25058C69.3259 7.92617 69.2464 7.76722 69.0002 7.76722H67.1657C67.0003 7.76722 66.9195 7.85973 66.8765 8.11248L66.8087 8.50985C66.7736 8.717 66.6785 8.75349 66.5899 8.54503C66.2785 7.80761 65.4837 7.47669 64.375 7.50274C61.7993 7.55616 60.0625 9.51175 59.8762 12.0184C59.7329 13.9571 61.1218 15.4801 62.9536 15.4801C64.2825 15.4801 64.8766 15.0893 65.5463 14.4769L65.5385 14.473ZM64.1405 13.4789C63.0318 13.4789 62.2592 12.5943 62.4194 11.5103C62.5797 10.4264 63.6167 9.54171 64.7255 9.54171C65.8342 9.54171 66.6068 10.4264 66.4466 11.5103C66.2863 12.5943 65.2492 13.4789 64.1405 13.4789ZM71.8443 15.2691H69.9161C69.8825 15.2706 69.8491 15.2646 69.8181 15.2517C69.7871 15.2388 69.7594 15.2192 69.7368 15.1943C69.7143 15.1694 69.6975 15.1398 69.6878 15.1077C69.678 15.0756 69.6754 15.0417 69.6802 15.0085L71.374 4.27817C71.3901 4.20494 71.4306 4.13933 71.4888 4.09202C71.547 4.04471 71.6195 4.01848 71.6945 4.0176H73.6227C73.6562 4.0161 73.6897 4.02203 73.7207 4.03495C73.7517 4.04788 73.7794 4.06749 73.8019 4.09238C73.8245 4.11727 73.8412 4.14684 73.851 4.17895C73.8608 4.21107 73.8633 4.24495 73.8585 4.27817L72.1648 15.0085C72.1491 15.0822 72.1089 15.1484 72.0507 15.1962C71.9924 15.2441 71.9196 15.2707 71.8443 15.2717V15.2691Z" fill="#009EE3"/>
<path fill-rule="evenodd" clip-rule="evenodd" d="M3.28819 0H8.34066C9.76338 0 11.4519 0.0456 12.5802 1.04229C13.3345 1.70804 13.7306 2.76727 13.6394 3.90857C13.3293 7.76633 11.0219 9.92776 7.92635 9.92776H5.43529C5.01056 9.92776 4.73045 10.2092 4.61059 10.97L3.91486 15.3998C3.86926 15.6864 3.74549 15.8558 3.524 15.8766H0.406272C0.0610153 15.8766 -0.0614543 15.616 0.0284427 15.0402L2.26935 0.841644C2.35925 0.270993 2.67324 0 3.28819 0Z" fill="#113984"/>
<path fill-rule="evenodd" clip-rule="evenodd" d="M4.68311 10.5207L5.56514 4.93533C5.64201 4.44546 5.9104 4.21094 6.44457 4.21094H11.4918C12.327 4.21094 13.0032 4.34122 13.5321 4.58225C13.0253 8.01658 10.8039 9.92397 7.89595 9.92397H5.4088C5.07527 9.92527 4.83033 10.092 4.68311 10.5207Z" fill="#172C70"/>
</svg>
