<svg width="52" height="17" viewBox="0 0 52 17" fill="none" xmlns="http://www.w3.org/2000/svg">
<path fill-rule="evenodd" clip-rule="evenodd" d="M36.9737 11.209C36.9842 8.55539 34.7905 7.40971 33.0874 6.5195C32.0095 5.95655 31.1284 5.49613 31.1284 4.82171C31.1284 4.24686 31.6863 3.63823 32.8737 3.48107C34.2853 3.34181 35.7095 3.58844 36.9905 4.19518L37.7242 0.714116C36.4747 0.246664 35.1505 0.00497895 33.8158 0C29.6979 0 26.8358 2.19307 26.8358 5.32602C26.8358 7.64139 28.9126 8.92939 30.4831 9.69518C32.0537 10.4611 32.6642 11.0001 32.6463 11.6963C32.6463 12.7755 31.3558 13.2628 30.1516 13.2807C28.6663 13.2996 27.201 12.9405 25.8937 12.2363L25.1431 15.7174C26.6221 16.2933 28.1979 16.5828 29.7852 16.5698C34.1642 16.5698 37.0442 14.4115 37.0611 11.0697L36.9737 11.209ZM25.6495 0.279485L22.16 16.3789H17.9726L21.4621 0.279485H25.6495ZM43.2032 10.7216L45.4011 4.68255L46.6758 10.7216H43.2032ZM51.7358 16.4315H47.8621L47.3558 14.0296H42.1042L41.2484 16.4315H36.8516L43.1158 1.51476C43.4042 0.804621 44.0916 0.338158 44.8611 0.3312H48.3505L51.7358 16.4315ZM12.9989 16.3261L19.7695 0.226769H15.2326L10.8884 11.1741L9.14316 1.86286C8.98843 0.916011 8.16738 0.22279 7.20632 0.226769H0.10527L0 0.69621C1.42421 0.974695 2.80841 1.43022 4.11788 2.05381C4.67578 2.31539 5.05368 2.8515 5.11263 3.46413L8.44527 16.3261H12.9989Z" fill="#212B36"/>
</svg>
